<svg width="90" height="63" viewBox="0 0 90 63" fill="none" xmlns="http://www.w3.org/2000/svg">
<path d="M7.99365 0C3.60741 0 0 3.60779 0 7.99402V54.7639C0 59.1502 3.60741 62.7581 7.99365 62.7581H82.0063C86.3926 62.7581 90 59.1502 90 54.7639V7.99402C90 3.60779 86.3926 0 82.0063 0H7.99365ZM7.99365 4.89813H82.0063C83.7639 4.89813 85.1023 6.23651 85.1023 7.99402V44.6924L71.4843 32.948C69.9833 31.6535 67.7606 31.6535 66.2596 32.9479L52.1472 45.1182L30.7093 16.9454C29.1085 14.8418 25.9437 14.8418 24.3429 16.9454L4.89774 42.4995V7.99402C4.89774 6.23651 6.23613 4.89813 7.99365 4.89813ZM66.8178 10.405C65.0276 10.405 63.3108 11.1162 62.0449 12.3821C60.7791 13.6479 60.0679 15.3648 60.0678 17.155C60.0678 18.9452 60.7789 20.6622 62.0448 21.9282C63.3107 23.1941 65.0276 23.9054 66.8178 23.9055C67.7043 23.9055 68.5821 23.7309 69.4012 23.3917C70.2202 23.0524 70.9643 22.5552 71.5912 21.9283C72.218 21.3015 72.7153 20.5573 73.0545 19.7383C73.3937 18.9193 73.5683 18.0415 73.5683 17.155C73.5682 15.3647 72.857 13.6478 71.591 12.382C70.3251 11.1161 68.6081 10.4049 66.8178 10.405Z" fill="#00A3DF"/>
</svg>
